<svg width="151" height="35" viewBox="0 0 151 35" fill="none" xmlns="http://www.w3.org/2000/svg">
<g clip-path="url(#clip0_964_17554)">
<g clip-path="url(#clip1_964_17554)">
<path d="M47.2553 32.4249L53.4193 32.5526C51.2949 31.8183 49.2349 30.9244 47.2553 29.8709V32.4249ZM56.5414 31.5789V32.4249L53.4193 32.5526C59.2935 34.5479 64.6688 34.8193 68.66 33.7019C65.4574 33.7338 61.2891 33.2869 56.5414 31.5789ZM122.349 13.1901C124.908 13.1901 127 11.131 127 8.577C127 6.02301 124.924 4.6662 122.349 4.6662C119.79 4.6662 117.698 6.03897 117.698 8.577C117.698 11.115 119.774 13.1901 122.349 13.1901ZM117.682 32.4249H127V14.7864H117.682V32.4249ZM105.82 32.4249H115.139V1.25024L105.82 5.60799V32.4249ZM100.831 13.3657C97.9024 10.4606 92.7202 10.6362 92.7202 10.6362C92.7202 10.6362 87.5219 10.4606 84.6089 13.3657C81.6799 16.2709 81.9052 18.777 81.9052 21.762C81.9052 24.747 81.6799 27.2371 84.6089 30.1423C87.538 33.0474 92.7202 32.8718 92.7202 32.8718C92.7202 32.8718 97.9185 33.0474 100.831 30.1423C103.76 27.2371 103.535 24.747 103.535 21.762C103.519 18.761 103.744 16.2549 100.831 13.3657ZM94.4261 24.8427C94.4261 25.4174 94.1364 26.838 92.7041 26.838C91.2718 26.838 90.9821 25.4174 90.9821 24.8427V18.3939C90.9821 17.0052 92.1569 16.654 92.7041 16.654C93.2513 16.654 94.4261 16.9892 94.4261 18.3939V24.8427ZM77.3346 13.3657C74.4055 10.4606 69.2233 10.6362 69.2233 10.6362C69.2233 10.6362 64.0411 10.4606 61.1121 13.3657C60.8063 13.669 60.5166 13.9883 60.2591 14.3235C54.1113 9.5986 48.5911 6.90094 43.8274 4.57043V1.2662L40.2063 2.95822C31.4513 -0.569481 25.8828 0.0530559 24.5471 2.97418C24.5471 2.97418 20.5397 8.20986 34.493 20.6606V32.4249H43.8113V27.8596C42.7652 27.1892 41.7191 26.4709 40.6891 25.6887C38.3072 23.9009 36.2794 22.2409 34.5091 20.6765V15.7282C36.6174 18.0747 39.4177 20.7404 43.1032 23.7573L43.8274 24.3319V19.5751C43.8274 18.4737 44.101 16.67 45.5655 16.67C47.03 16.67 47.2714 17.7714 47.2714 19.0643V26.838C50.1683 28.7855 53.2744 30.3657 56.5575 31.5629V16.5742C56.5575 13.5892 54.401 10.6042 50.0235 10.6042C47.4807 10.5883 45.1149 11.9132 43.8274 14.1V5.4324C50.5707 8.76855 57.33 12.8549 59.905 14.7385C58.2635 17.069 58.4083 19.2239 58.4083 21.7141C58.4083 24.6991 58.183 27.1892 61.1121 30.0944C64.0411 32.9995 69.2233 32.824 69.2233 32.824C69.2233 32.824 74.4216 32.9995 77.3346 30.0944C80.2636 27.1892 80.0222 24.6991 80.0222 21.7141C80.0222 18.761 80.2636 16.2549 77.3346 13.3657ZM34.493 5.60799V15.7122C26.6553 7.01268 28.2325 3.58076 28.828 3.08592C31.0007 1.2662 34.8632 1.80892 39.1924 3.42113L34.493 5.60799ZM70.9453 24.8427C70.9453 25.4174 70.6557 26.838 69.2233 26.838C67.791 26.838 67.5013 25.4174 67.5013 24.8427V18.3939C67.5013 17.0052 68.6761 16.654 69.2233 16.654C69.7705 16.654 70.9453 16.9892 70.9453 18.3939V24.8427Z" fill="#737373"/>
</g>
</g>
<defs>
<clipPath id="clip0_964_17554">
<rect width="151" height="34" fill="white" transform="translate(0 0.5)"/>
</clipPath>
<clipPath id="clip1_964_17554">
<rect width="103" height="34" fill="white" transform="translate(24 0.5)"/>
</clipPath>
</defs>
</svg>
