<svg width="151" height="59" viewBox="0 0 151 59" fill="none" xmlns="http://www.w3.org/2000/svg">
<g clip-path="url(#clip0_964_17557)">
<path d="M34 0.995234H46.6121V35.0099C46.6121 40.4046 49.0437 43.6154 51.0215 44.9519C48.9627 46.761 42.7215 48.3582 38.0203 44.4955C35.2645 42.2137 34 38.4162 34 34.8795V0.995234ZM112.769 29.2729V25.6872H116.627V13.1701H112.396C110.759 5.62396 104.096 0.017334 96.1365 0.017334C86.9611 0.017334 79.4879 7.51457 79.4879 16.7557V45.9624C82.0816 46.3372 85.2266 45.9135 87.8689 43.6806C90.641 41.3988 91.8893 37.6176 91.8893 34.0646V32.9726H98.1791V20.4555H91.8893V16.6579C91.8893 11.0187 100.351 11.0187 100.351 16.6579V29.224C100.351 38.4488 107.808 45.9624 117 45.9624V33.4941C114.649 33.4941 112.769 31.5872 112.769 29.2729ZM65.0602 13.1375V31.5546C65.0602 34.0646 61.202 34.0646 61.202 31.5546V13.1375H48.752V34.7654C48.752 38.6444 50.0488 43.5665 56.0469 45.18C62.0449 46.7773 65.4816 43.4524 65.4816 43.4524C65.1412 45.6364 63.1311 47.2499 59.824 47.5759C57.3113 47.8367 54.1178 46.9892 52.5291 46.3046V57.7624C56.598 58.9847 60.8777 59.3596 65.1088 58.5284C72.7441 57.0452 77.5588 50.64 77.5588 42.0996V13.056H65.0602V13.1375Z" fill="#737373"/>
</g>
<defs>
<clipPath id="clip0_964_17557">
<rect width="83" height="59" fill="white" transform="translate(34)"/>
</clipPath>
</defs>
</svg>
