<svg width="151" height="75" viewBox="0 0 151 75" fill="none" xmlns="http://www.w3.org/2000/svg">
<g clip-path="url(#clip0_964_17560)">
<path d="M126.5 0.145752C113.622 8.82826 112.252 15.1296 111.136 17.0572C110.068 19.0334 109.272 26.825 107.423 30.5993C105.558 34.4222 98.7847 37.4352 96.8881 38.6987C95.0234 39.9622 92.3778 44.8704 90.2103 49.0982C72.9819 48.3855 63.5309 55.3833 48.9003 64.2602C53.5859 62.6889 55.8012 61.555 55.8012 61.555C70.8144 55.7235 78.0022 50.4913 100.602 53.5853C100.777 53.5853 100.904 53.6825 101.048 53.7149C101.669 54.0712 101.892 54.8326 101.542 55.4643L92.9516 70.9827C92.5531 71.744 91.7084 72.149 90.8637 71.9708C70.655 68.1155 54.7016 74.7732 40.0391 74.9838C28.3409 75.1619 24.5 69.5572 24.5 69.298C24.5 69.1198 24.5956 69.0226 24.7709 69.0226C24.7709 69.0226 30.875 69.0226 41.2025 66.5442C52.9325 43.8175 63.3875 35.8639 74.7669 35.8639C74.7669 35.8639 86.1941 35.8639 89.2062 45.8909C92.84 39.46 93.7166 37.9211 93.7166 37.9211C94.5612 36.3985 99.2947 25.4157 107.487 15.0162C115.694 4.64899 121.894 2.0734 126.5 0.145752Z" fill="#737373"/>
</g>
<defs>
<clipPath id="clip0_964_17560">
<rect width="102" height="75" fill="white" transform="translate(24.5)"/>
</clipPath>
</defs>
</svg>
